HIERARCHY
ROOT root
{
	OFFSET	0	13.1	24.9
	CHANNELS 6  Xposition Yposition Zposition Xrotation Yrotation Zrotation
	JOINT spine_1
	{
		OFFSET	0	9.99999	0
		CHANNELS 3  Xrotation Yrotation Zrotation
		JOINT spine_2
		{
			OFFSET	0	112	-10
			CHANNELS 3  Xrotation Yrotation Zrotation
			JOINT spine_3
			{
				OFFSET	0	206.5	19.3
				CHANNELS 3  Xrotation Yrotation Zrotation
				JOINT spine_4
				{
					OFFSET	0	110.4	14.6
					CHANNELS 3  Xrotation Yrotation Zrotation
					JOINT neck_1
					{
						OFFSET	0	71.8	-50.3
						CHANNELS 3  Xrotation Yrotation Zrotation
						JOINT neck_2
						{
							OFFSET	0	86.2	-25.8
							CHANNELS 3  Xrotation Yrotation Zrotation
							JOINT head_ee
							{
								OFFSET	0	179.8	-8.7
								CHANNELS 3  Xrotation Yrotation Zrotation
								End Site
								{
									OFFSET	1	0	0
								}
							}
						}
					}
					JOINT left_clavicle
					{
						OFFSET	-43.2	22.4	-70.8
						CHANNELS 3  Xrotation Yrotation Zrotation
						JOINT left_shoulder
						{
							OFFSET	-93.9	-5.79999	48.7
							CHANNELS 3  Xrotation Yrotation Zrotation
							JOINT left_elbow
							{
								OFFSET	-291.4	-30.8	15.2
								CHANNELS 3  Xrotation Yrotation Zrotation
								JOINT left_lowarm_twist
								{
									OFFSET	-110.7	-3.89999	13.6
									CHANNELS 3  Xrotation Yrotation Zrotation
									JOINT left_hand
									{
										OFFSET	-110.7	-3.89999	13.6
										CHANNELS 3  Xrotation Yrotation Zrotation
										JOINT left_ee
										{
											OFFSET	-80.8	-5.10001	12.1
											CHANNELS 3  Xrotation Yrotation Zrotation
											End Site
											{
												OFFSET	1	0	0
											}
										}
									}
								}
							}
						}
					}
					JOINT right_clavicle
					{
						OFFSET	43.2	22.4	-70.8
						CHANNELS 3  Xrotation Yrotation Zrotation
						JOINT right_shoulder
						{
							OFFSET	93.9	-5.79999	48.7
							CHANNELS 3  Xrotation Yrotation Zrotation
							JOINT right_elbow
							{
								OFFSET	291.4	-30.8	15.2
								CHANNELS 3  Xrotation Yrotation Zrotation
								JOINT right_lowarm_twist
								{
									OFFSET	110.7	-3.89999	13.6
									CHANNELS 3  Xrotation Yrotation Zrotation
									JOINT right_hand
									{
										OFFSET	110.7	-3.89999	13.6
										CHANNELS 3  Xrotation Yrotation Zrotation
										JOINT right_ee
										{
											OFFSET	80.8	-5.10001	12.1
											CHANNELS 3  Xrotation Yrotation Zrotation
											End Site
											{
												OFFSET	1	0	0
											}
										}
									}
								}
							}
						}
					}
				}
			}
		}
	}
	JOINT left_hip
	{
		OFFSET	-82.8	-127.5	0.300001
		CHANNELS 3  Xrotation Yrotation Zrotation
		JOINT left_knee
		{
			OFFSET	-28.2	-396.7	2.2
			CHANNELS 3  Xrotation Yrotation Zrotation
			JOINT left_ankle
			{
				OFFSET	-11.7	-411.3	35.4
				CHANNELS 3  Xrotation Yrotation Zrotation
				JOINT left_toes
				{
					OFFSET	0	-60	-88.6
					CHANNELS 3  Xrotation Yrotation Zrotation
					JOINT left_foot_ee
					{
						OFFSET	-22.5	-16.5	-42.2
						CHANNELS 3  Xrotation Yrotation Zrotation
						End Site
						{
							OFFSET	1	0	0
						}
					}
				}
			}
		}
	}
	JOINT right_hip
	{
		OFFSET	82.8	-127.5	0.300001
		CHANNELS 3  Xrotation Yrotation Zrotation
		JOINT right_knee
		{
			OFFSET	28.2	-396.7	2.2
			CHANNELS 3  Xrotation Yrotation Zrotation
			JOINT right_ankle
			{
				OFFSET	11.7	-411.3	35.4
				CHANNELS 3  Xrotation Yrotation Zrotation
				JOINT right_toes
				{
					OFFSET	0	-60	-88.6
					CHANNELS 3  Xrotation Yrotation Zrotation
					JOINT right_foot_ee
					{
						OFFSET	22.5	-16.5	-42.2
						CHANNELS 3  Xrotation Yrotation Zrotation
						End Site
						{
							OFFSET	1	0	0
						}
					}
				}
			}
		}
	}
}
MOTION
Frames: 13
Frame Time: 0.02
1023.12757669 755.962 -1556.97611912 14.2718922491 63.148037597 -14.2869143022 -2.68174 0.544657 3.49512 -2.675 0.321291 3.52265 -2.64677 -0.588485 3.48802 -2.66374 -0.030591 3.53712 -6.05736 16.2769 -10.8736 -5.35782 37.9776 -8.10443 -0.0 0.0 -0.0 -4.25326 23.9065 -3.01974 -7.94645 -3.41651 72.1217 0.646082 -17.7474 0.100871 -2.77198 -0.105879 0.338084 -0.21496 27.6114 9.66257 -0.0 0.0 -0.0 12.3934 22.4773 -24.6407 -6.57107 46.7122 -53.0426 1.4149 35.0245 -0.446469 45.7513 0.681706 5.65154 2.62174 -24.6973 -25.6227 0.0 0.0 0.0 -11.3119 19.198 -1.44174 -12.0602 0.305745 1.82216 38.528 2.21944 -4.73421 -20.8262 0.0 0.0 -0.0 0.0 -0.0 1.00467 12.897 -7.39405 2.71881 0.121471 0.399459 1.15964 7.3101 0.175762 -5.89649 0.0 0.0 0.0 0.0 0.0 
1009.65339928 759.738 -1563.05199125 14.3426824918 62.0590984037 -14.6155148678 -2.5732 0.579779 3.47925 -2.56654 0.35735 3.50904 -2.53635 -0.543352 3.48512 -2.55329 0.0135196 3.52714 -7.07764 16.2918 -10.9717 -6.57812 38.067 -7.77091 -0.0 0.0 -0.0 -4.67994 23.8258 -3.62589 -9.54854 -1.82307 73.2538 0.766318 -20.7873 0.14056 -1.76687 -0.0655958 0.216083 -0.145959 29.6506 10.7747 -0.0 0.0 -0.0 12.2774 21.7759 -24.4343 -5.28954 46.3566 -52.8568 1.48466 36.3306 -0.48716 44.5001 0.603787 5.51167 2.55748 -20.886 -24.2941 0.0 0.0 0.0 -10.9781 19.7047 -0.921305 -6.98049 0.223833 1.04726 38.461 2.7556 -4.72618 -22.0409 0.0 0.0 -0.0 0.0 -0.0 -0.8374 13.1353 -6.20845 3.62742 0.166283 0.531645 -0.522648 7.96188 -0.0798263 -6.42687 0.0 0.0 0.0 0.0 0.0 
988.228755324 760.841 -1559.43535333 17.0448642957 59.753669358 -17.6893297961 -2.82763 0.755856 3.51113 -2.82093 0.531047 3.55204 -2.77859 -0.401021 3.56904 -2.79633 0.1673 3.58757 -7.825 16.4864 -10.5024 -7.51976 38.0888 -6.9222 -0.0 0.0 -0.0 -4.49342 23.8947 -3.35222 -10.7979 -0.786319 74.0743 0.731968 -19.9304 0.128609 -0.518223 -0.0185471 0.0635823 0.0123665 28.9537 11.3959 -0.0 0.0 -0.0 12.4311 20.7124 -24.8738 -4.94324 44.6505 -52.8001 1.59464 38.3037 -0.55384 44.784 0.621197 5.54355 2.63517 -16.5759 -23.6413 0.0 0.0 0.0 -9.73513 19.9742 -1.34712 -13.2614 0.315049 2.00623 38.6343 2.76321 -4.74163 -21.6876 0.0 0.0 -0.0 0.0 -0.0 -3.17557 13.4155 -4.16017 -0.222889 -0.00911364 -0.0329903 2.53417 9.02091 0.386012 -5.73159 0.0 0.0 0.0 0.0 0.0 
975.511623198 759.076 -1551.74667328 19.7698576977 60.5511129519 -21.1344138591 -2.96242 0.819839 3.72156 -2.95491 0.581538 3.7661 -2.90577 -0.415726 3.78796 -2.92574 0.187281 3.80607 -8.36423 16.5658 -10.1846 -8.19478 38.0084 -6.3481 -0.0 0.0 -0.0 -4.44673 23.2826 -3.43659 -10.6799 -0.482931 73.4925 0.686809 -18.7896 0.113638 0.772671 0.0265831 -0.0951017 0.177277 27.9816 11.9761 -0.0 0.0 -0.0 12.5368 21.2034 -25.0796 -3.71705 43.3789 -54.5096 1.63542 39.0093 -0.579318 44.091 0.578977 5.46557 2.78094 -14.627 -24.0681 0.0 0.0 0.0 -8.92589 19.603 -1.59826 -13.7886 0.317914 2.08706 34.7467 3.23303 -4.37747 -22.2489 0.0 0.0 -0.0 0.0 -0.0 -4.775 13.6119 -2.83195 -2.47799 -0.0940676 -0.368626 6.09905 10.0994 0.924274 -4.92539 0.0 0.0 0.0 0.0 0.0 
966.123354297 762.715 -1554.60590308 17.5628523577 58.754310435 -18.868685433 -3.11845 0.769189 3.89071 -3.11018 0.520251 3.93168 -3.06246 -0.528869 3.93054 -3.084 0.0980175 3.96469 -11.1444 16.8042 -9.68159 -11.5818 38.0358 -4.60619 -0.0 0.0 -0.0 -4.46064 23.4054 -3.42613 -9.60019 0.979121 74.3177 0.767701 -20.8216 0.141051 3.05169 0.0974813 -0.377549 0.244825 28.5984 12.5595 -0.0 0.0 -0.0 12.4623 20.5274 -24.96 -3.01355 42.1418 -54.8005 1.72111 40.447 -0.634089 44.7312 0.617945 5.53762 2.95947 -10.4632 -24.0145 0.0 0.0 0.0 -7.72904 18.5937 -1.90406 0.12072 -0.00498971 -0.0178536 18.7675 2.45827 -2.58569 -27.1958 0.0 0.0 -0.0 0.0 -0.0 -3.54579 13.5471 -1.68524 -5.5789 -0.189166 -0.834963 8.54428 13.0147 1.30714 -8.01595 0.0 0.0 0.0 0.0 0.0 
677.133297482 659.717 -1532.41229897 26.0873042035 64.1174389087 -31.7560597016 -4.52146 0.959439 5.85604 -4.50258 0.585526 5.90498 -4.40909 -1.12276 5.82703 -4.45638 -0.190092 5.93081 -13.7498 17.5863 -4.56132 -14.8361 36.285 1.64818 -0.0 0.0 -0.0 -4.30401 23.5019 -3.18575 -12.4781 4.76432 69.9644 1.3886 -34.5211 0.431471 7.57063 0.204568 -0.944724 0.229639 14.7937 7.49518 -0.0 0.0 -0.0 12.6807 21.7348 -25.3688 14.5559 45.0666 -69.4539 2.08207 45.88 -0.881295 54.3221 1.29531 6.5602 -1.17911 -4.91462 5.6977 0.0 0.0 0.0 10.5549 27.3869 -11.2691 -40.9036 -0.525252 6.1243 40.5476 0.429167 -4.91967 -26.0876 0.0 0.0 -0.0 0.0 -0.0 -20.3655 28.3392 3.74532 -31.732 0.0261609 -4.80795 42.0633 -22.6927 5.28791 38.3391 -0.0 -0.0 0.0 0.0 0.0 
670.523853388 660.967 -1513.0006408 28.2840495879 66.3759341914 -34.4212611019 -4.60532 0.883702 6.08391 -4.58488 0.49552 6.12759 -4.49643 -1.28253 6.01275 -4.5467 -0.31871 6.13928 -16.1081 17.4993 -4.59111 -17.6007 36.1255 2.49279 -0.0 0.0 -0.0 -4.08293 23.2593 -2.93603 -13.325 3.78687 69.7711 1.25938 -31.957 0.360623 8.35164 0.218526 -1.04351 0.23673 14.7643 7.52832 -0.0 0.0 -0.0 12.6139 21.4091 -25.2412 15.8672 45.0657 -69.8037 2.24859 48.0773 -1.00306 54.3862 1.3004 6.56665 -1.02914 -2.92291 5.59311 0.0 0.0 0.0 11.7267 27.7085 -12.2204 -35.2288 -0.191452 5.3189 38.8357 -3.67471 -4.81157 -26.5324 0.0 0.0 -0.0 0.0 -0.0 -20.2152 28.695 3.8304 -31.9761 0.0366846 -4.84394 42.4538 -22.5126 5.31748 39.5676 -0.0 -0.0 0.0 0.0 0.0 
659.297864245 664.827 -1495.50485584 29.3393894158 67.6878188556 -35.6619441014 -4.66904 0.938958 6.2475 -4.64751 0.540317 6.29433 -4.5502 -1.2933 6.18411 -4.60339 -0.302438 6.31017 -17.4595 18.4365 -3.99882 -19.3893 37.561 4.04251 -0.0 0.0 -0.0 -4.37038 23.0714 -3.38096 -14.6397 2.71152 70.6505 1.09015 -28.3695 0.275549 9.14624 0.231343 -1.1442 0.324425 15.2796 8.27413 -0.0 0.0 -0.0 12.7464 21.1378 -25.57 16.5784 44.2981 -69.429 2.44817 50.4842 -1.15436 54.4832 1.30813 6.57639 -0.586333 -0.13458 3.86009 0.0 0.0 0.0 13.7741 27.6355 -12.9107 -29.477 0.0637424 4.47359 38.2487 -6.90187 -4.80863 -26.7226 0.0 0.0 -0.0 0.0 -0.0 -20.8311 30.9052 4.18921 -32.1008 0.0421156 -4.86229 40.5111 -21.5553 5.11449 39.8611 -0.0 -0.0 0.0 0.0 0.0 
652.547545897 666.374 -1488.68752537 28.8974092824 68.1634405897 -35.1535403581 -4.72145 0.925359 6.34791 -4.6992 0.520395 6.39367 -4.60186 -1.34692 6.2723 -4.65655 -0.341556 6.40566 -18.2771 17.7934 -5.64831 -20.2666 37.1761 2.52417 -0.0 0.0 -0.0 -3.88592 23.5053 -2.60702 -15.2991 2.43647 70.5997 0.988556 -26.0906 0.229054 9.10921 0.230776 -1.13951 0.213219 16.2547 7.95199 -0.0 0.0 -0.0 12.4809 21.2989 -24.9428 17.0737 44.5422 -70.4255 2.78418 54.0457 -1.42021 53.7536 1.25044 6.50284 -0.393994 2.8419 3.8518 0.0 0.0 0.0 15.7543 26.6231 -13.3565 -26.604 0.159089 4.04302 33.4901 -9.76605 -4.40904 -26.9081 0.0 0.0 -0.0 0.0 -0.0 -20.9231 31.5261 4.13899 -32.2856 0.0502428 -4.88948 41.1942 -20.378 5.14669 40.216 -0.0 -0.0 0.0 0.0 0.0 
652.428601939 666.374 -1478.41361132 29.9182072691 68.8761186907 -36.2505051715 -4.72145 0.925359 6.34791 -4.6992 0.520395 6.39367 -4.60186 -1.34692 6.2723 -4.65655 -0.341556 6.40566 -18.2771 17.7934 -5.64831 -20.2666 37.1761 2.52417 -0.0 0.0 -0.0 -3.88592 23.5053 -2.60702 -15.2991 2.43647 70.5997 0.988556 -26.0906 0.229054 9.10921 0.230776 -1.13951 0.213219 16.2547 7.95199 -0.0 0.0 -0.0 12.4809 21.2989 -24.9428 17.0737 44.5422 -70.4255 2.78418 54.0457 -1.42021 53.7536 1.25044 6.50284 -0.393994 2.8419 3.8518 0.0 0.0 0.0 15.7543 26.6231 -13.3565 -26.604 0.159089 4.04302 33.4901 -9.76605 -4.40904 -26.9081 0.0 0.0 -0.0 0.0 -0.0 -20.9231 31.5261 4.13899 -32.2856 0.0502428 -4.88948 41.1942 -20.378 5.14669 40.216 -0.0 -0.0 0.0 0.0 0.0 
646.670426803 668.422 -1467.06921545 28.2825830842 69.5789542994 -34.6446230174 -4.71508 1.04428 6.41737 -4.69241 0.634685 6.47051 -4.57987 -1.25668 6.37934 -4.63653 -0.235634 6.49718 -18.3473 17.8464 -6.83454 -20.4037 37.8959 1.50116 -0.0 0.0 -0.0 -3.62897 23.6632 -2.21821 -15.999 2.01168 71.0068 0.90185 -24.0724 0.192294 9.2612 0.233081 -1.15878 0.216884 16.9797 8.2499 -0.0 0.0 -0.0 12.8173 20.9356 -25.7506 17.4802 43.3978 -69.7546 3.02538 56.2751 -1.61822 53.2957 1.21473 6.45632 -0.159945 5.23077 3.29653 0.0 0.0 0.0 17.038 25.4924 -13.4577 -23.1013 0.245934 3.51258 30.8418 -12.9887 -4.20592 -26.9173 0.0 0.0 -0.0 0.0 -0.0 -21.1391 32.8338 4.78853 -32.1249 0.0431709 -4.86584 40.7414 -20.1704 5.10059 40.0745 -0.0 -0.0 0.0 0.0 0.0 
646.803005265 668.422 -1459.13407051 29.1029295684 70.1288263984 -35.5184193157 -4.71508 1.04428 6.41737 -4.69241 0.634685 6.47051 -4.57987 -1.25668 6.37934 -4.63653 -0.235634 6.49718 -18.3473 17.8464 -6.83454 -20.4037 37.8959 1.50116 -0.0 0.0 -0.0 -3.62897 23.6632 -2.21821 -15.999 2.01168 71.0068 0.90185 -24.0724 0.192294 9.2612 0.233081 -1.15878 0.216884 16.9797 8.2499 -0.0 0.0 -0.0 12.8173 20.9356 -25.7506 17.4802 43.3978 -69.7546 3.02538 56.2751 -1.61822 53.2957 1.21473 6.45632 -0.159945 5.23077 3.29653 0.0 0.0 0.0 17.038 25.4924 -13.4577 -23.1013 0.245934 3.51258 30.8418 -12.9887 -4.20592 -26.9173 0.0 0.0 -0.0 0.0 -0.0 -21.1391 32.8338 4.78853 -32.1249 0.0431709 -4.86584 40.7414 -20.1704 5.10059 40.0745 -0.0 -0.0 0.0 0.0 0.0 
647.017584519 668.422 -1451.34622775 29.9544789882 70.6642537566 -36.4223519224 -4.71508 1.04428 6.41737 -4.69241 0.634685 6.47051 -4.57987 -1.25668 6.37934 -4.63653 -0.235634 6.49718 -18.3473 17.8464 -6.83454 -20.4037 37.8959 1.50116 -0.0 0.0 -0.0 -3.62897 23.6632 -2.21821 -15.999 2.01168 71.0068 0.90185 -24.0724 0.192294 9.2612 0.233081 -1.15878 0.216884 16.9797 8.2499 -0.0 0.0 -0.0 12.8173 20.9356 -25.7506 17.4802 43.3978 -69.7546 3.02538 56.2751 -1.61822 53.2957 1.21473 6.45632 -0.159945 5.23077 3.29653 0.0 0.0 0.0 17.038 25.4924 -13.4577 -23.1013 0.245934 3.51258 30.8418 -12.9887 -4.20592 -26.9173 0.0 0.0 -0.0 0.0 -0.0 -21.1391 32.8338 4.78853 -32.1249 0.0431709 -4.86584 40.7414 -20.1704 5.10059 40.0745 -0.0 -0.0 0.0 0.0 0.0 
